<svg xmlns="http://www.w3.org/2000/svg" xmlns:xlink="http://www.w3.org/1999/xlink" width="300" height="300" viewBox="0 0 300 300"><defs><style>.a{fill:#fff;}.b{opacity:0.2;}.c{clip-path:url(#a);}.d{fill:none;}</style><clipPath id="a"><rect class="a" x="228.97" y="232.064" width="40" height="40"/></clipPath></defs><title>tools</title><g class="b"><path class="a" d="M66.976,51.884l-7.512-7.512V39.58H54.672L47.16,32.068V28.8H42.544V33.42H45.8l4.136,4.136a0.188,0.188,0,0,0-.064-0.016,15.864,15.864,0,0,0-15.864,5.12H30.232v4.616h4.616V44.46l0.1,0.08a13.946,13.946,0,0,1,14.456-5.128,14.135,14.135,0,0,1,3.9,1.624v4.7h4.672A13.8,13.8,0,0,1,54.312,64.2H51.776v4.6h4.616V65.036a15.868,15.868,0,0,0,5.352-14.712c-0.072-.432-0.2-0.848-0.312-1.264l4.184,4.184V56.5h4.616V51.884H66.976Z"/><path class="a" d="M238.592,132.3h-2.184a3.283,3.283,0,0,0-3.282,3.283v2.184a1.092,1.092,0,1,0,2.184,0v-2.184A1.093,1.093,0,0,1,236.4,134.5h2.184a1.093,1.093,0,0,0,1.092-1.092A1.076,1.076,0,0,0,238.592,132.3Zm26.245,0h-2.184a1.092,1.092,0,0,0,0,2.184h2.184a1.093,1.093,0,0,1,1.092,1.092v2.184a1.092,1.092,0,1,0,2.184,0v-2.177A3.272,3.272,0,0,0,264.836,132.3Zm2.191,28.434a1.093,1.093,0,0,0-1.092,1.092v2.184a1.093,1.093,0,0,1-1.092,1.092H262.66a1.092,1.092,0,0,0,0,2.184h2.184a3.287,3.287,0,0,0,3.282-3.283v-2.184A1.1,1.1,0,0,0,267.027,160.739Zm-28.435,4.382h-2.184a1.093,1.093,0,0,1-1.092-1.092v-2.184a1.1,1.1,0,0,0-2.191-.007v2.184a3.283,3.283,0,0,0,3.282,3.283h2.184a1.093,1.093,0,0,0,1.092-1.092A1.08,1.08,0,0,0,238.592,165.121Zm-4.374-10.941a1.093,1.093,0,0,0,1.092-1.092v-6.566a1.092,1.092,0,1,0-2.184,0v6.566A1.093,1.093,0,0,0,234.217,154.18Zm32.809-8.75a1.093,1.093,0,0,0-1.092,1.092v6.566a1.092,1.092,0,1,0,2.184,0v-6.566A1.093,1.093,0,0,0,267.027,145.43ZM253.9,132.3H247.34a1.092,1.092,0,0,0,0,2.184H253.9A1.092,1.092,0,0,0,253.9,132.3Zm0,32.816H247.34a1.092,1.092,0,0,0,0,2.184H253.9A1.092,1.092,0,0,0,253.9,165.121Z"/><path class="a" d="M173.36,133.464a4.916,4.916,0,0,0-8.392-3.472L156.3,138.68l-0.872-.872a1.257,1.257,0,0,0-1.736,0l-4.344,4.336a1.236,1.236,0,0,0,0,1.744l1.728,1.728-15.6,15.616a0.016,0.016,0,0,1-.016.008,3.679,3.679,0,0,0-.688,4.224,0.908,0.908,0,0,0-.184.12l-0.864.872a1.23,1.23,0,0,0,1.744,1.736l0.872-.872a0.908,0.908,0,0,0,.12-0.184,3.641,3.641,0,0,0,4.224-.68,0.008,0.008,0,0,1,.008-0.008l15.624-15.608,1.728,1.728a1.271,1.271,0,0,0,.872.36,1.3,1.3,0,0,0,.872-0.36l4.336-4.344a1.217,1.217,0,0,0,0-1.728l-0.856-.856,8.656-8.7A4.864,4.864,0,0,0,173.36,133.464Zm-30.1,26.912-1.728-1.728,11.28-11.28,1.728,1.728ZM158.9,149.96l-6.952-6.952,2.6-2.6,6.952,6.952Zm11.288-14.752-8.688,8.68-3.472-3.472,8.68-8.688A2.461,2.461,0,0,1,170.184,135.208Z"/><path class="a" d="M167.04,131.84a1.072,1.072,0,0,0,0,1.512,1.053,1.053,0,0,0,1.52,0A1.072,1.072,0,1,0,167.04,131.84Z"/><path class="a" d="M99.76,99.688a1.536,1.536,0,1,0,1.536-1.536A1.536,1.536,0,0,0,99.76,99.688Zm4.616-4.616a1.536,1.536,0,1,0,1.536-1.536A1.536,1.536,0,0,0,104.376,95.072Zm4.616,15.392h4.616V89.688a2.3,2.3,0,0,0-2.3-2.3H90.528V92h18.464v18.464ZM95.144,104.3a1.536,1.536,0,1,0,1.536-1.536A1.536,1.536,0,0,0,95.144,104.3Zm21.544-18.456a1.54,1.54,0,1,0-1.536-1.544A1.536,1.536,0,0,0,116.688,85.848ZM115.92,112H89V85.072a2.312,2.312,0,0,0-4.624,0V114.3a2.3,2.3,0,0,0,2.3,2.3H115.9A2.3,2.3,0,0,0,115.92,112Zm-6.928,8.464a2.3,2.3,0,0,0,4.608,0v-2.3h-4.616v2.3h0.008ZM78.224,89.688a2.3,2.3,0,0,0,2.3,2.3h2.3V87.384h-2.3A2.3,2.3,0,0,0,78.224,89.688Zm13.848,20.776a1.536,1.536,0,1,0-1.536-1.536A1.536,1.536,0,0,0,92.072,110.464Z"/><path class="a" d="M166.76,51.236c0.04-.472.072-0.944,0.072-1.432a17.144,17.144,0,1,0-17.144,17.144,2.856,2.856,0,0,0,0-5.712A11.432,11.432,0,1,1,161.12,49.8a12.067,12.067,0,0,1-.1,1.432h-5.616l8.568,8.568,8.568-8.568H166.76ZM146.832,49.8a2.856,2.856,0,1,0,2.856-2.856A2.858,2.858,0,0,0,146.832,49.8Z"/><rect class="a" x="228.97" y="232.064" width="40" height="40"/><g class="c"><rect class="a" x="228.97" y="232.064" width="40" height="40"/><g class="c"><path class="a" d="M268.21,250.424l-7.4-6.616c-1.008-.9-1.84-0.528-1.84.832v3.68h-6.248v-6.256h3.68c1.36,0,1.736-.832.832-1.84l-6.616-7.4a2.154,2.154,0,0,0-3.288,0l-6.616,7.4c-0.9,1.008-.528,1.84.832,1.84h3.68v6.248H238.97v-3.68c0-1.36-.824-1.736-1.84-0.832l-7.4,6.624a2.154,2.154,0,0,0,0,3.288l7.4,6.616c1.016,0.9,1.84.528,1.84-.832v-3.68h6.248v6.248h-3.68c-1.36,0-1.736.832-.832,1.84l6.616,7.4a2.154,2.154,0,0,0,3.288,0l6.608-7.4c0.9-1.008.536-1.84-.832-1.84h-3.68v-6.248h6.264v3.68c0,1.36.832,1.736,1.84,0.832l7.4-6.616a2.154,2.154,0,0,0,0-3.288"/></g></g><path class="a" d="M143.715,240.726l-7.337,22-1.047,1.047,1.047,1.047,1.047-1.047,22.005-7.331,2.093-10.476,2.093,2.093,2.093-2.093-2.093-2.093,4.192-4.192-7.331-7.331-4.192,4.192-2.093-2.093L152.1,236.54l2.093,2.093Zm11.059,0.809,0.877-.175,0.634-.634,3.145,3.145-0.634.634-0.175.877-1.759,8.785-14.747,4.916,6.839-6.839L150,253.29l3.145-3.145L150,247l-3.145,3.145,1.047,1.047-6.839,6.839,4.916-14.747Z"/><path class="a" d="M30.232,166.223l4.683,4.184,19.511-17.434-4.683-4.184Zm27.316-24.408L51.3,147.394l4.683,4.184L62.23,146Zm-9.356.006,1.717-4.076,4.293-1.631-4.293-1.631-1.717-4.076-1.717,4.076-4.293,1.631,4.293,1.631Zm18.033,0L67.37,139.1l2.862-1.087L67.37,136.93l-1.145-2.718L65.08,136.93l-2.862,1.087L65.08,139.1Zm-0.01,9.525-1.145,2.718-2.862,1.087,2.862,1.087,1.145,2.718,1.145-2.718,2.862-1.087-2.862-1.087Z"/><path class="a" d="M216.869,188.75A3.131,3.131,0,0,0,220,185.624v-3.743a3.126,3.126,0,0,0-3.127-3.127h-3.75A3.124,3.124,0,0,0,210,181.881V182.5H190.008v-0.624a3.126,3.126,0,0,0-3.127-3.127h-3.743a3.126,3.126,0,0,0-3.127,3.127v3.75a3.124,3.124,0,0,0,3.127,3.119h0.624v19.992h-0.624a3.126,3.126,0,0,0-3.127,3.127v3.75a3.124,3.124,0,0,0,3.127,3.119h3.75a3.131,3.131,0,0,0,3.127-3.127v-0.624h19.992v0.624a3.131,3.131,0,0,0,3.127,3.127h3.75a3.131,3.131,0,0,0,3.127-3.127v-3.75a3.131,3.131,0,0,0-3.127-3.127h-0.624V188.75h0.608Zm-33.731-2.5a0.625,0.625,0,0,1-.624-0.624v-3.75a0.625,0.625,0,0,1,.624-0.624h3.75a0.625,0.625,0,0,1,.624.624v3.743a0.625,0.625,0,0,1-.624.624h-3.127l-0.624.008h0Zm4.374,26.238v3.119a0.625,0.625,0,0,1-.624.624h-3.75a0.625,0.625,0,0,1-.624-0.624v-3.75a0.625,0.625,0,0,1,.624-0.624h3.743a0.625,0.625,0,0,1,.624.624l0.008,0.632h0ZM210,211.869v0.624H190.008v-0.624a3.131,3.131,0,0,0-3.127-3.127h-0.624V188.75h0.624a3.131,3.131,0,0,0,3.127-3.127V185H210v0.624a3.131,3.131,0,0,0,3.127,3.127h0.624v19.992h-0.624A3.126,3.126,0,0,0,210,211.869Zm6.869-.632a0.625,0.625,0,0,1,.624.624v3.75a0.625,0.625,0,0,1-.624.624h-3.75a0.625,0.625,0,0,1-.624-0.624v-3.743a0.625,0.625,0,0,1,.624-0.624h3.75v-0.008Zm-3.119-24.982h-0.624a0.625,0.625,0,0,1-.624-0.624v-3.75a0.625,0.625,0,0,1,.624-0.624h3.75a0.625,0.625,0,0,1,.624.624v3.75a0.625,0.625,0,0,1-.624.624H213.75Z"/><path class="a" d="M217.349,95.475l1.148,1.148a0.4,0.4,0,0,1-.566.566l-1.148-1.148-0.894.894,0.532,0.532a0.4,0.4,0,0,1,0,.566,0.4,0.4,0,0,1-.566,0l-0.532-.532-0.894.894,0.532,0.532a0.4,0.4,0,0,1,0,.566,0.4,0.4,0,0,1-.566,0l-0.532-.532-0.894.894,0.532,0.532a0.4,0.4,0,0,1,0,.566,0.4,0.4,0,0,1-.566,0l-0.532-.532-0.894.894,1.148,1.148a0.4,0.4,0,0,1,0,.566,0.406,0.406,0,0,1-.566,0l-1.148-1.148-0.894.894,1.889,1.889L220.608,96l-1.889-1.889Z"/><path class="a" d="M188.443,100.295a7.14,7.14,0,1,0,10.1.006A7.156,7.156,0,0,0,188.443,100.295Z"/><path class="a" d="M189.223,91.742l-9.334,9.334a6.106,6.106,0,0,0,.091,8.621l9.164,9.164a6.1,6.1,0,0,0,8.6.034l13.616-13.627L197.884,91.793A6.132,6.132,0,0,0,189.223,91.742Zm9.883,19.216a7.944,7.944,0,1,1,0-11.235A7.953,7.953,0,0,1,199.106,110.958Z"/><rect class="a" x="216.34" y="91.433" width="0.904" height="2.864" transform="translate(-2.168 180.495) rotate(-45)"/><path class="a" d="M187.871,99.724a7.944,7.944,0,1,0,11.235,0A7.953,7.953,0,0,0,187.871,99.724Zm9.319,9.321a5.232,5.232,0,1,1,0-7.4A5.239,5.239,0,0,1,197.191,109.044Z"/><path class="a" d="M215.85,90.639l-1.245,1.245a0.4,0.4,0,0,0,0,.566l2.314,2.314-7.461,7.461-3.6-3.6,1.861-1.861-5.606-5.606-1.861,1.861-1.793-1.793a6.943,6.943,0,0,0-9.8-.051l-9.334,9.334a6.906,6.906,0,0,0,.091,9.764l9.164,9.164a6.9,6.9,0,0,0,9.747.028l0.006-.006,13.893-13.916c0.023-.023.034-0.045,0.051-0.062l9.175-9.175a0.407,0.407,0,0,0-.068-0.634l-5.046-5.046A0.326,0.326,0,0,0,215.85,90.639Zm-8.768,14.632L196.721,115.64a4.636,4.636,0,0,1-6.543-.026l-6.973-6.973a4.646,4.646,0,0,1-.069-6.56l7.1-7.1a4.666,4.666,0,0,1,6.59.039Zm4.837-.586-1.889-1.889,0.894-.894,1.148,1.148a0.4,0.4,0,0,0,.566,0,0.406,0.406,0,0,0,0-.566l-1.148-1.148,0.894-.894,0.532,0.532a0.4,0.4,0,0,0,.566-0.566l-0.532-.532,0.894-.894,0.532,0.532a0.4,0.4,0,0,0,.566-0.566l-0.532-.532,0.894-.894,0.532,0.532a0.4,0.4,0,0,0,.566-0.566l-0.532-.532,0.894-.894,1.148,1.148a0.4,0.4,0,0,0,.566,0,0.4,0.4,0,0,0,0-.566L217.327,95.5l1.346-1.346,1.889,1.889Zm6.206-11.127-0.639.639-2.025-2.025,0.639-.639Z"/><path class="a" d="M121.3,214.216l-14.336-14.778a13.747,13.747,0,1,0-4.674,4.956l14.135,14.569ZM95.164,201.474a8.7,8.7,0,1,1,8.765-8.7A8.735,8.735,0,0,1,95.164,201.474Z"/><path class="a" d="M54.121,265.4h-8a2.667,2.667,0,0,1-2.667-2.667H32.788v5.333a2.667,2.667,0,0,0,2.667,2.667H64.788a2.667,2.667,0,0,0,2.667-2.667V262.73H56.788A2.667,2.667,0,0,1,54.121,265.4Zm13.333-26.666H56.788V233.4H43.454v5.333H32.788a2.667,2.667,0,0,0-2.667,2.666v16a2.667,2.667,0,0,0,2.667,2.666H43.455v-5.333a2.667,2.667,0,0,1,2.667-2.667h8a2.666,2.666,0,0,1,2.666,2.667v5.333H67.454a2.667,2.667,0,0,0,2.667-2.666v-16A2.667,2.667,0,0,0,67.454,238.731Zm-13.333,0h-8v-2.666h8v2.666Zm-2.667,24a2.667,2.667,0,0,0,2.667-2.666V257.4a2.667,2.667,0,0,0-2.667-2.667H48.788a2.667,2.667,0,0,0-2.667,2.667v2.666a2.667,2.667,0,0,0,2.667,2.666h2.666Z"/><path class="a" d="M235.579,63.267c0,6.891-6.609,5.96-6.609,5.96s15.752,8.74,19.3-6.464v0.019l0.012-.017-6.253-6.812A6.981,6.981,0,0,0,235.579,63.267Zm7.492-8.383,6.106,6.651,3.756-5.143-5.315-6.032Zm25.81-22.953c-0.707-.889-3.963,1.287-7.676,4.944-2.087,2.055-7.861,7.792-12.528,12.432l5.157,5.853c4.062-5.561,9.178-12.56,11.042-15.094C268.147,35.619,269.322,32.425,268.88,31.931Z"/><rect class="d" width="300" height="300"/></g></svg>