<svg id="constructor-icon" viewBox="0 0 100 100">
	<g fill="currentColor" stroke="currentColor" stroke-width="2">
		<path d="M12.435 68.878c-2.596 0-4.708 2.112-4.708 4.708 0 2.597 2.112 4.71 4.708 4.71s4.708-2.113 4.708-4.71c0-2.596-2.112-4.708-4.708-4.708zm0 8.153c-1.9 0-3.444-1.54-3.444-3.44s1.55-3.44 3.45-3.44 3.45 1.55 3.45 3.45c0 1.9-1.54 3.45-3.44 3.45zm43.96 1.27c2.598 0 4.71-2.11 4.71-4.71 0-2.59-2.11-4.7-4.71-4.7S51.688 71 51.688 73.6s2.11 4.71 4.708 4.71zm0-8.15c1.9 0 3.446 1.55 3.446 3.45 0 1.9-1.54 3.45-3.44 3.45s-3.44-1.55-3.44-3.45 1.54-3.44 3.44-3.44z"/>
		<circle cx="12.435" cy="73.587" r=".993"/>
		<circle cx="56.396" cy="73.587" r=".993"/>
		<path d="M19.752 71.842c0 .35.283.633.632.633h28.062c.35 0 .63-.284.63-.633 0-.35-.28-.632-.63-.632H20.384c-.35 0-.632.282-.632.632zM48.446 74.7H20.384c-.35 0-.632.282-.632.63s.283.633.632.633h28.062c.35 0 .63-.283.63-.632s-.282-.63-.63-.63zM33.59 44.428h-4.854c-.35 0-.632.283-.632.632 0 .35.283.632.632.632h4.854c.35 0 .632-.283.632-.632 0-.35-.283-.632-.632-.632z"/>
		<path d="M94.91 70.25l-2.667-4.46c.337-.04.586-.335.56-.676l-1.908-23.926 1.274-.196c.18-.03.35-.142.45-.308.09-.166.11-.365.04-.543L87.2 25.9l-1.046-3.77c-.055-.194-.2-.352-.393-.422l-6.73-2.452c-.21-.076-.44-.037-.61.105-.17.14-.26.37-.22.59l.5 3.21-18.23 8.26c-.14.07-.26.19-.32.34l-.86 2.11-6.43 1.71c-.16.05-.3.15-.39.3l-4.55 7.98-.33-1.29c-.07-.28-.32-.48-.61-.48H26.23c-.35 0-.633.29-.633.63v8.72H24.38l-.49-2.02c-.068-.28-.322-.48-.614-.48h-6.522c-.242 0-.463.14-.57.36l-1.04 2.15h-1.96c-.35 0-.633.28-.633.63v9.79c0 .35.29.636.64.636h12.97c.02 0 .03-.007.04-.007.01 0 .02.01.04.01h3.55v4.04h-17.7C8.18 66.5 5 69.677 5 73.58s3.176 7.08 7.08 7.08l.134.002c.045.01.09.017.136.017h44.128c.028 0 .09-.01.14-.02h.133c3.91 0 7.08-3.18 7.08-7.08s-3.17-7.08-7.08-7.08h-15.7v-4.04h6.2c.25 0 .47-.14.57-.36l2.96-6.19
		         c.01-.01 0-.01.01-.02.01-.02.02-.05.02-.07.02-.06.03-.11.04-.16 0-.01.01-.02.01-.03 0-.02-.01-.04-.01-.06v-.1l-1.07-4.27 8.48-7.2 21.88-11.5 5.05 32.89c.01.03.01.06.02.09l-3.98 8.1-7.436 4.15c-.236.13-.362.4-.313.662.05.266.26.472.53.51l12.87 1.85c.03.005.06.007.09.007.12 0 .24-.033.346-.1l5.777-3.736c.13-.083.225-.213.267-.36l1.64-5.84c.044-.17.02-.348-.07-.496z
		         M17.15 50.166h5.63l.3 1.24h-6.532l.602-1.24zm-3.334 2.504h2v2.94c0 .35.283.633.632.633.348 0 .63-.283.63-.632v-2.94h1.77v2.94c0 .35.284.64.633.64.35 0 .64-.28.64-.63v-2.94h1.77v2.94c0 .35.29.64.63.64.35 0 .63-.28.63-.63v-2.94h2.45v8.52H13.82v-8.52zm48.75 20.908c0 3.207-2.608 5.816-5.815 5.816h-.19c-.04 0-.09.005-.13.014l-.01.003H12.41c-.044-.01-.09-.01-.136-.01h-.19c-3.203 0-5.81-2.61-5.81-5.81s2.607-5.81 5.814-5.81h44.67c3.21 0 5.817 2.61 5.817 5.82zm-22.782-7.08h-8.747v-4.042h8.747v4.042zm7.06-5.307H26.86v-4.92h9.165c.025 0 .047-.01.072-.01.024.01.047.02.072.02.34 0 .63-.28.63-.63V45.06c0-.35-.29-.632-.63-.632s-.64.283-.64.632v9.948h-8.67V43.323h19.6l2.93 11.685h-9.56v-9.315h4.67c.35 0 .63-.283.63-.632 0-.34-.29-.63-.64-.63h-5.3c-.35 0-.63.29-.63.63v10.58c0 .35.28.64.63.64h10l-2.35 4.92z
		         M91.5 64.67c-.068-.045-.143-.08-.225-.096l-1.76-.353-1.353-22.61 1.48-.23L91.5 64.67zm-3.413-24.33l-.61-10.195 3.726 9.717-3.116.478zm-26.884-7.877l17.683-8.01.62 4.043L60.8 33.45l.403-.987zm30.983 43.553l-5.375 3.478-10.78-1.55L82 74.608c.11-.063.2-.158.26-.273l4.3-8.75c.1-.2.084-.436-.035-.62-.045-.07-.103-.13-.168-.176L81.24 31.44c-.032-.202-.158-.377-.34-.47s-.397-.09-.58.006l-22.737 11.96c-.04.02-.08.047-.114.077l-8.06 6.835-1.08-4.246 5.07-8.892 26.96-7.14c.31-.082.51-.386.46-.705l-1.24-8.06L85 22.78l.95 3.42 2.307 38.58c.017.29.226.53.506.59l1.964.4 2.938 4.91-1.502 5.35z"/>
		<path d="M89.475 68.504c-.3.18-.398.566-.22.866l.932 1.564-.968 3.452-3.42 2.2c-.3.187-.38.58-.19.872.12.188.32.29.53.29.12 0 .23-.033.34-.102l3.61-2.33c.13-.083.22-.21.26-.36l1.1-3.942c.04-.167.02-.346-.07-.494l-1.07-1.797c-.18-.3-.57-.397-.87-.22z"/>
	</g>
</svg>
