<svg id="mdn-icon" viewBox="0 0 43.9 38.8">
	<path fill="currentColor" d="M33,0h0L22,4.4,11,0h0L0,4.4V38.8l11-4.2,11,4.2h0l10.9-4.2,11,4.2V4.4Zm4.2,20c-0.4.8-1.4,3.1-1,2.6-0.4.5-.7,0.6-1.7,0.4a14.8,14.8,0,0,1-2.1,1.3c-1,.2-3.1-0.5-4-0.7-1.8-.3-1.9.1-3.5,0.9-2.3,1.1-1.8,4-2.7,5.6h0a2.568,2.568,0,0,0,.2.5h0c0,0.2.1,0.3,0.1,0.5a14.22,14.22,0,0,1-7.6-1.2,14.341,14.341,0,0,1-4.7-3.8c0.3-.2.6-0.3,0.9-0.5h0a2.186,2.186,0,0,0,.5-0.3H11.3a1.952,1.952,0,0,0-.7-0.1A5.385,5.385,0,0,1,12,24l0.1-.1a5.535,5.535,0,0,0-2.2,1,16.65,16.65,0,0,1,1.2-2.3,11.865,11.865,0,0,0-2.3,1.6c0-.8.9-1.5,1.3-2.1,0.3-.5.7-0.8,0.9-1.2a19.217,19.217,0,0,0-3.5,1.8,12.9,12.9,0,0,1,2.8-3.8,15.046,15.046,0,0,0-3.4,1.6V20.3a25.136,25.136,0,0,1,3.3-3.2c-1,.1-3,1.2-4,1.5C7,17.1,9.7,15.3,11,14.2L7.9,15a3.079,3.079,0,0,1-1.3.3,44.86,44.86,0,0,1,7.1-5.8s3-2.1,6-1.8c1.4,0.4,2.6.9,4,1.2,1.2-.3,2.8-0.7,4,0.1a2.624,2.624,0,0,1,1.1,2.8c2.1,2.3,6.7,2.6,8,4.3,0.2,0.3.1,2.2,0.5,3.4Z"/>
</svg>
